<?xml version="1.0" encoding="UTF-8"?>
<svg version="1.1" xmlns="http://www.w3.org/2000/svg" width="429" height="170">
<path d="M0 0 C2.64046189 1.56676008 4.98603269 3.45267551 7.375 5.375 C8.80079631 6.48510425 10.22924374 7.59181081 11.66015625 8.6953125 C12.38219238 9.25250977 13.10422852 9.80970703 13.84814453 10.38378906 C17.08017775 12.81129756 20.4293817 15.04016198 23.8125 17.25 C29.13969002 20.7422306 34.3340081 24.36239551 39.46484375 28.140625 C41.91454897 29.93732714 44.38606365 31.69564406 46.875 33.4375 C47.67550781 34.00210938 48.47601563 34.56671875 49.30078125 35.1484375 C51.34215764 36.54874489 53.39363631 37.89739155 55.48046875 39.2265625 C56.07424316 39.61400635 56.66801758 40.0014502 57.27978516 40.40063477 C58.98188882 41.50996253 60.69576809 42.6011594 62.41015625 43.69140625 C66.14172291 47.0177349 65.89169781 50.20357074 66.18322754 55.03923035 C66.35218892 62.21500282 66.4572386 69.38775302 66.46816254 76.5653944 C66.47485461 80.24020559 66.51000815 83.90979247 66.61376953 87.58325195 C67.31234718 113.32537771 67.31234718 113.32537771 61.85083008 119.23779297 C58.76946876 121.7880803 55.46218354 123.58431745 51.80792236 125.18374634 C49.44188852 126.25198015 47.45821931 127.68013056 45.38671875 129.234375 C44.15525831 130.07528291 42.9222484 130.91392743 41.6875 131.75 C40.33964976 132.67028887 38.99199285 133.59086095 37.64453125 134.51171875 C37.01627441 134.9401709 36.38801758 135.36862305 35.74072266 135.81005859 C30.07253547 139.68477729 24.47157592 143.65544789 18.88110352 147.64111328 C17.67566255 148.50040869 16.46913036 149.35817551 15.26147461 150.21435547 C12.41007265 152.24321513 9.59278163 154.29710918 6.8359375 156.453125 C5.87945312 157.19046875 4.92296875 157.9278125 3.9375 158.6875 C3.10089844 159.35136719 2.26429687 160.01523438 1.40234375 160.69921875 C-1 162 -1 162 -3.3515625 162.03125 C-7.14497222 160.55417011 -10.0982344 158.27926198 -13.3125 155.8125 C-13.93833984 155.34263672 -14.56417969 154.87277344 -15.20898438 154.38867188 C-17.76680139 152.46571816 -20.31369591 150.52916775 -22.84790039 148.57519531 C-29.62696137 143.3993792 -36.77159998 138.78476806 -43.89257812 134.09765625 C-49.81189932 130.18162349 -55.62378515 126.16205126 -61.33862305 121.95263672 C-63.76823815 120.02342816 -63.76823815 120.02342816 -65.84686279 119.18315125 C-68.16077626 118.00850871 -69.43037053 117.08655716 -71 115 C-72.08492153 109.9692023 -71.98604888 104.96546077 -71.9296875 99.84765625 C-71.93440668 98.34459159 -71.94120349 96.84153215 -71.94998169 95.33848572 C-71.96028815 92.19169132 -71.94535372 89.04629021 -71.91259766 85.8996582 C-71.87274218 81.87598313 -71.8956578 77.85557919 -71.9376049 73.83202457 C-71.96296739 70.72875057 -71.95481935 67.62624517 -71.93671036 64.52294731 C-71.93205722 63.04025315 -71.93771379 61.55748806 -71.95406723 60.07487679 C-72.05348411 48.5270599 -72.05348411 48.5270599 -69.47599792 44.79090881 C-67.71551338 43.25545544 -66.04444766 42.11724646 -64 41 C-63.09378906 40.35675781 -62.18757813 39.71351562 -61.25390625 39.05078125 C-60.36574219 38.47714844 -59.47757813 37.90351562 -58.5625 37.3125 C-57.00595703 36.2915625 -57.00595703 36.2915625 -55.41796875 35.25 C-54.58918213 34.70666016 -54.58918213 34.70666016 -53.74365234 34.15234375 C-44.61133596 28.11698484 -35.67354668 21.79979784 -26.8125 15.375 C-25.30473055 14.2850967 -23.79691884 13.19525184 -22.2890625 12.10546875 C-20.19593016 10.59241172 -18.10495169 9.07699048 -16.02246094 7.54931641 C-14.25157604 6.25137497 -12.47104782 4.96795592 -10.6875 3.6875 C-9.70136719 2.96949219 -8.71523437 2.25148438 -7.69921875 1.51171875 C-4.61468491 -0.21579876 -3.45317182 -0.75068953 0 0 Z " fill="#05C065" transform="translate(77,5)"/>
<path d="M0 0 C5.11260331 1.80444823 7.43520551 4.39229791 10 9 C11.55023783 12.33813221 12.91122971 15.74252353 14.265625 19.1640625 C14.66271667 20.15135345 15.05980835 21.13864441 15.46893311 22.15585327 C16.73568988 25.30971337 17.99298747 28.46724535 19.25 31.625 C20.07880393 33.69295819 20.90822573 35.76066887 21.73828125 37.828125 C22.14581131 38.84501404 22.55334137 39.86190308 22.97322083 40.90960693 C23.79203841 42.95145475 24.61241832 44.99267675 25.43437195 47.03326416 C27.39870355 51.92526055 29.3189818 56.82512468 31.13989258 61.77246094 C31.65256683 63.13472305 31.65256683 63.13472305 32.17559814 64.52450562 C32.80816277 66.21034465 33.42441398 67.90244526 34.0199585 69.60171509 C37.2328354 78.06554833 43.43733803 81.66298955 51 86 C52.69192456 87.30113291 54.36866824 88.62365983 56 90 C52.94410713 92.27444833 49.86662807 94.51642549 46.76806641 96.73242188 C45.53779442 97.61443957 44.31116283 98.50154803 43.08740234 99.39257812 C41.11294451 100.82271018 39.12145234 102.22578541 37.125 103.625 C36.4952124 104.08696777 35.8654248 104.54893555 35.21655273 105.02490234 C30.73782433 108.11248797 30.73782433 108.11248797 27.6171875 107.63671875 C26.75351563 107.09660156 25.88984375 106.55648437 25 106 C24.34273926 105.59523438 23.68547852 105.19046875 23.00830078 104.7734375 C20.64160643 103.28740931 18.32022214 101.74498678 16 100.1875 C15.2059375 99.66607422 14.411875 99.14464844 13.59375 98.60742188 C9.27009556 95.72138254 5.51542387 92.83436354 2 89 C2.47945068 88.68772461 2.95890137 88.37544922 3.45288086 88.05371094 C5.62247767 86.63100724 7.77990857 85.19083846 9.9375 83.75 C11.06961914 83.01330078 11.06961914 83.01330078 12.22460938 82.26171875 C12.94326172 81.77832031 13.66191406 81.29492188 14.40234375 80.796875 C15.06741943 80.35698242 15.73249512 79.91708984 16.41772461 79.46386719 C18.40510241 77.62521307 18.6555356 76.67369114 19 74 C18.35150176 71.47009312 18.35150176 71.47009312 17.18579102 68.80419922 C16.76527969 67.76987762 16.34476837 66.73555603 15.91151428 65.66989136 C15.44700363 64.55937408 14.98249298 63.44885681 14.50390625 62.3046875 C13.80260841 60.5890007 13.80260841 60.5890007 13.08714294 58.83865356 C11.84392291 55.80134125 10.59146627 52.76807258 9.3338623 49.73669434 C7.56140352 45.45883884 5.80453754 41.17456966 4.04856873 36.8899231 C3.11268674 34.60883712 2.17240674 32.32954989 1.22743225 30.05221558 C0.80376877 29.0241983 0.38010529 27.99618103 -0.05639648 26.93701172 C-0.43247543 26.02974335 -0.80855438 25.12247498 -1.19602966 24.18771362 C-2 22 -2 22 -2 20 C-2.66 20 -3.32 20 -4 20 C-4.11335693 20.85609863 -4.22671387 21.71219727 -4.34350586 22.59423828 C-5.02910537 26.1509929 -6.11867777 29.14853255 -7.50390625 32.4921875 C-8.24350586 34.29042969 -8.24350586 34.29042969 -8.99804688 36.125 C-9.51939522 37.37505674 -10.04088131 38.62505604 -10.5625 39.875 C-11.08846464 41.14820052 -11.6138609 42.421636 -12.13867188 43.6953125 C-13.42021362 46.79923011 -14.70748804 49.90063822 -16 53 C-15.02417969 52.95359375 -14.04835937 52.9071875 -13.04296875 52.859375 C-11.77066406 52.82328125 -10.49835938 52.7871875 -9.1875 52.75 C-7.29064453 52.68039063 -7.29064453 52.68039063 -5.35546875 52.609375 C-2 53 -2 53 -0.125 54.86328125 C2.06309285 59.01913815 3.39750441 62.22994711 3 67 C1.28556781 68.71443219 -1.00445241 68.23052967 -3.34765625 68.31640625 C-4.42724609 68.35830078 -5.50683594 68.40019531 -6.61914062 68.44335938 C-7.75544922 68.48267578 -8.89175781 68.52199219 -10.0625 68.5625 C-11.77276367 68.62727539 -11.77276367 68.62727539 -13.51757812 68.69335938 C-16.34492195 68.79982839 -19.17235738 68.90184207 -22 69 C-24.31532862 73.63848465 -24.31532862 73.63848465 -25.06640625 78.66796875 C-23.48812325 82.11937884 -21.12561867 83.33251051 -17.9375 85.3125 C-16.83277344 86.00988281 -15.72804687 86.70726563 -14.58984375 87.42578125 C-13.73519531 87.94527344 -12.88054687 88.46476562 -12 89 C-16.54746695 94.01955568 -21.91244977 97.65226137 -27.5 101.4375 C-28.43714844 102.09943359 -29.37429687 102.76136719 -30.33984375 103.44335938 C-31.24863281 104.05888672 -32.15742187 104.67441406 -33.09375 105.30859375 C-33.91552734 105.87376709 -34.73730469 106.43894043 -35.58398438 107.02124023 C-38 108 -38 108 -40.63623047 107.2722168 C-49.61799195 102.43809584 -57.81758876 96.05627289 -66 90 C-63.51287002 86.99275781 -60.92664203 85.36723544 -57.49243164 83.65429688 C-39.59772768 74.2459505 -34.55206297 60.68434932 -28.20214844 42.64758301 C-26.66667844 38.33507923 -25.03449838 34.0583979 -23.41727543 29.77605438 C-22.1631679 26.44990782 -20.92304822 23.12078052 -19.72618103 19.77355957 C-19.29374588 18.57791382 -18.86131073 17.38226807 -18.41577148 16.15039062 C-18.04387192 15.10451782 -17.67197235 14.05864502 -17.2888031 12.9810791 C-13.76480858 4.82986779 -9.4675244 -1.16267844 0 0 Z " fill="#BEFD71" transform="translate(77,25)"/>
<path d="M0 0 C3.19621345 2.32857248 3.99114468 4.30804638 5.46533203 7.9609375 C5.71727325 8.57212433 5.96921448 9.18331116 6.22879028 9.8130188 C7.04965422 11.81475375 7.84742642 13.82483031 8.64501953 15.8359375 C9.20968481 17.22697515 9.77578219 18.61743228 10.34326172 20.00732422 C11.50659232 22.86323176 12.66077765 25.7225884 13.80810547 28.58496094 C15.43662226 32.64135582 17.10220659 36.68163171 18.77783203 40.71875 C19.77615295 43.1324314 20.77307522 45.5466868 21.77001953 47.9609375 C22.23553223 49.085 22.70104492 50.2090625 23.18066406 51.3671875 C23.60718262 52.41132812 24.03370117 53.45546875 24.47314453 54.53125 C25.03243652 55.8927417 25.03243652 55.8927417 25.60302734 57.28173828 C26.50947318 59.80656159 27.15134451 62.17903505 27.52001953 64.8359375 C25.71352052 66.64243651 23.08250911 66.09290716 20.64501953 66.1484375 C19.57509766 66.18582031 18.50517578 66.22320312 17.40283203 66.26171875 C14.52001953 65.8359375 14.52001953 65.8359375 12.99316406 64.16333008 C11.35305941 61.57216043 10.21176083 59.01746182 9.06689453 56.171875 C8.61548096 55.05723877 8.16406738 53.94260254 7.69897461 52.79418945 C7.22741943 51.61171631 6.75586426 50.42924316 6.27001953 49.2109375 C5.54238403 47.40532349 5.54238403 47.40532349 4.80004883 45.56323242 C0.96323996 36.01736401 -2.80025506 26.44341168 -6.47998047 16.8359375 C-6.88990234 18.00511719 -7.29982422 19.17429687 -7.72216797 20.37890625 C-8.26638261 21.92710309 -8.81065657 23.47527907 -9.35498047 25.0234375 C-9.62439453 25.79236328 -9.89380859 26.56128906 -10.17138672 27.35351562 C-11.53055866 31.21555298 -12.91712259 35.05017982 -14.47998047 38.8359375 C-13.22185547 38.7740625 -11.96373047 38.7121875 -10.66748047 38.6484375 C-6.75086906 38.6553451 -6.75086906 38.6553451 -4.60498047 40.0859375 C-4.23373047 40.6634375 -3.86248047 41.2409375 -3.47998047 41.8359375 C-3.08810547 42.4340625 -2.69623047 43.0321875 -2.29248047 43.6484375 C-1.24114625 46.47895269 -1.28036582 48.84171777 -1.47998047 51.8359375 C-2.47998047 52.8359375 -2.47998047 52.8359375 -4.33764648 52.94946289 C-5.5237854 52.94160767 -5.5237854 52.94160767 -6.73388672 52.93359375 C-7.58789062 52.93037109 -8.44189453 52.92714844 -9.32177734 52.92382812 C-10.21960938 52.91544922 -11.11744141 52.90707031 -12.04248047 52.8984375 C-12.94417969 52.89392578 -13.84587891 52.88941406 -14.77490234 52.88476562 C-17.00999361 52.87293975 -19.24495484 52.8564597 -21.47998047 52.8359375 C-21.60244141 53.57199219 -21.72490234 54.30804688 -21.85107422 55.06640625 C-22.75764412 59.05869234 -24.57881235 62.21758527 -26.47998047 65.8359375 C-30.43998047 65.8359375 -34.39998047 65.8359375 -38.47998047 65.8359375 C-39.60498209 60.21092937 -39.60498209 60.21092937 -38.25170898 56.98974609 C-37.95712296 56.27064056 -37.66253693 55.55153503 -37.35902405 54.81063843 C-37.02897873 54.0429715 -36.69893341 53.27530457 -36.35888672 52.484375 C-36.02130844 51.67086578 -35.68373016 50.85735657 -35.33592224 50.01919556 C-34.25027535 47.41116033 -33.14674422 44.81113694 -32.04248047 42.2109375 C-31.33360715 40.51612267 -30.62591369 38.82081384 -29.91943359 37.125 C-28.50429151 33.73255677 -27.07499798 30.34655974 -25.63671875 26.96386719 C-24.16007136 23.48047245 -22.73208681 19.98183921 -21.33496094 16.46582031 C-20.98586166 15.60058746 -20.63676239 14.73535461 -20.27708435 13.84390259 C-19.61598663 12.202826 -18.96575098 10.55731522 -18.32850647 8.90682983 C-16.46563303 4.32702031 -14.81514383 1.54644 -10.47998047 -1.1640625 C-6.34259836 -2.54318987 -3.9010389 -1.83108422 0 0 Z " fill="#0CC169" transform="translate(221.47998046875,53.1640625)"/>
<path d="M0 0 C6.29444575 3.35070511 12.23004107 7.02541012 18.0625 11.125 C18.83271484 11.64964844 19.60292969 12.17429688 20.39648438 12.71484375 C21.12287109 13.22402344 21.84925781 13.73320312 22.59765625 14.2578125 C23.25258057 14.7130127 23.90750488 15.16821289 24.58227539 15.63720703 C25.28404907 16.31178955 25.28404907 16.31178955 26 17 C26 17.99 26 18.98 26 20 C23.9305416 21.72807329 21.90889597 23.24096494 19.6875 24.75 C19.05827637 25.18812012 18.42905273 25.62624023 17.78076172 26.07763672 C12.28739936 29.87539695 6.68524834 33.49603062 1 37 C-5.29444575 33.64929489 -11.23004107 29.97458988 -17.0625 25.875 C-17.83271484 25.35035156 -18.60292969 24.82570312 -19.39648438 24.28515625 C-20.12287109 23.77597656 -20.84925781 23.26679688 -21.59765625 22.7421875 C-22.25258057 22.2869873 -22.90750488 21.83178711 -23.58227539 21.36279297 C-24.05012451 20.91307129 -24.51797363 20.46334961 -25 20 C-25 19.01 -25 18.02 -25 17 C-23.56640625 15.63720703 -23.56640625 15.63720703 -21.5625 14.2578125 C-20.46615234 13.49404297 -20.46615234 13.49404297 -19.34765625 12.71484375 C-18.57292969 12.19019531 -17.79820313 11.66554687 -17 11.125 C-16.25621094 10.60808594 -15.51242188 10.09117187 -14.74609375 9.55859375 C-9.91954587 6.22617722 -5.00064747 3.06408883 0 0 Z " fill="#BEFD71" transform="translate(70,118)"/>
<path d="M0 0 C0.8146875 -0.00128906 1.629375 -0.00257812 2.46875 -0.00390625 C3.32210938 -0.00003906 4.17546875 0.00382812 5.0546875 0.0078125 C5.88484375 0.00394531 6.715 0.00007813 7.5703125 -0.00390625 C21.78592298 0.01837527 21.78592298 0.01837527 25.3671875 3.5078125 C27.94775978 7.84317394 28.2684293 11.13637097 27.9296875 16.1328125 C26.34373649 20.05992928 24.95202623 22.11047377 21.9296875 25.1328125 C25.3946875 32.0628125 25.3946875 32.0628125 28.9296875 39.1328125 C27.9296875 40.1328125 27.9296875 40.1328125 24.2421875 40.7578125 C22.0625 40.7421875 22.0625 40.7421875 19.9296875 40.1328125 C17.31957427 37.46469676 15.64879217 34.42642425 13.9296875 31.1328125 C13.58808594 30.49472656 13.24648438 29.85664062 12.89453125 29.19921875 C12.20465887 27.86118721 11.5605409 26.49966154 10.9296875 25.1328125 C8.2896875 25.1328125 5.6496875 25.1328125 2.9296875 25.1328125 C2.5996875 30.0828125 2.2696875 35.0328125 1.9296875 40.1328125 C-0.7103125 40.1328125 -3.3503125 40.1328125 -6.0703125 40.1328125 C-7.05535394 37.17768818 -7.13691694 35.55264766 -6.984375 32.5 C-6.94054687 31.61183594 -6.89671875 30.72367188 -6.8515625 29.80859375 C-6.8 28.88433594 -6.7484375 27.96007812 -6.6953125 27.0078125 C-6.65148437 26.07582031 -6.60765625 25.14382812 -6.5625 24.18359375 C-6.19981279 17.26231279 -6.19981279 17.26231279 -5.0703125 16.1328125 C-3.53162289 16.05803716 -1.98958465 16.04957653 -0.44921875 16.0703125 C0.95360352 16.08191406 0.95360352 16.08191406 2.38476562 16.09375 C4.3691413 16.11974051 6.3535163 16.14578198 8.33789062 16.171875 C9.74264648 16.18347656 9.74264648 16.18347656 11.17578125 16.1953125 C12.03872803 16.20691406 12.9016748 16.21851562 13.79077148 16.23046875 C15.98279474 16.27540635 15.98279474 16.27540635 17.9296875 15.1328125 C17.9724085 13.46669345 17.97032582 11.79898365 17.9296875 10.1328125 C16.9153612 8.8938946 16.9153612 8.8938946 14.8125 9.03515625 C13.90242188 9.04675781 12.99234375 9.05835937 12.0546875 9.0703125 C10.57742188 9.08191406 10.57742188 9.08191406 9.0703125 9.09375 C8.03390625 9.10664062 6.9975 9.11953125 5.9296875 9.1328125 C3.88807246 9.15820572 1.8463975 9.17927813 -0.1953125 9.1953125 C-1.10539062 9.20691406 -2.01546875 9.21851562 -2.953125 9.23046875 C-5.0703125 9.1328125 -5.0703125 9.1328125 -6.0703125 8.1328125 C-6.11124187 5.79983817 -6.11272973 3.46576025 -6.0703125 1.1328125 C-3.7959321 -0.0043777 -2.52454847 0.00387625 0 0 Z " fill="#21C676" transform="translate(347.0703125,79.8671875)"/>
<path d="M0 0 C4.2877212 1.5988113 4.60069186 2.26609433 6.625 6.1875 C7.68611074 8.57356523 8.69884425 10.95954715 9.6875 13.375 C10.02491211 14.17164062 10.36232422 14.96828125 10.70996094 15.7890625 C11.82195723 18.41579416 12.91526226 21.04940039 14 23.6875 C14.3498999 24.53481689 14.6997998 25.38213379 15.06030273 26.25512695 C16.95469253 31.00440934 18.21294025 35.27864094 18.6875 40.375 C16.0475 40.375 13.4075 40.375 10.6875 40.375 C6.40799057 31.52185678 2.84035861 22.6801181 -0.3125 13.375 C-1.9625 17.335 -3.6125 21.295 -5.3125 25.375 C-3.0025 25.375 -0.6925 25.375 1.6875 25.375 C2.0175 27.685 2.3475 29.995 2.6875 32.375 C-1.03680357 33.06789369 -4.52333746 33.48644596 -8.3125 33.375 C-9.6325 35.685 -10.9525 37.995 -12.3125 40.375 C-14.9525 40.375 -17.5925 40.375 -20.3125 40.375 C-20.3125 34.19581161 -17.63691211 29.02592085 -15.3125 23.375 C-14.95881348 22.50810547 -14.60512695 21.64121094 -14.24072266 20.74804688 C-13.06865248 17.88924275 -11.88056055 15.03760257 -10.6875 12.1875 C-10.30343994 11.25429932 -9.91937988 10.32109863 -9.52368164 9.35961914 C-9.15235107 8.48426514 -8.78102051 7.60891113 -8.3984375 6.70703125 C-8.0689209 5.92046143 -7.7394043 5.1338916 -7.39990234 4.32348633 C-5.5554264 1.01842066 -3.65424852 0.41368851 0 0 Z " fill="#66D366" transform="translate(404.3125,79.625)"/>
<path d="M0 0 C1.134375 0.020625 2.26875 0.04125 3.4375 0.0625 C6.70375622 7.01413381 9.68607302 14.04141994 12.46923828 21.19750977 C13.55308403 24.36954912 13.55308403 24.36954912 15.4375 27.0625 C19.0675 18.1525 22.6975 9.2425 26.4375 0.0625 C29.0775 0.0625 31.7175 0.0625 34.4375 0.0625 C35.79285254 4.12855762 34.63483868 5.7578642 33.05078125 9.70703125 C32.79250046 10.35443771 32.53421967 11.00184418 32.26811218 11.66886902 C31.71854511 13.03995547 31.16428239 14.40916768 30.60571289 15.77661133 C29.75929753 17.85220049 28.93033308 19.93411664 28.10351562 22.01757812 C22.45425004 36.04574996 22.45425004 36.04574996 18.4375 40.0625 C15.125 40.5 15.125 40.5 11.4375 40.0625 C7.10610427 34.87191125 4.86614215 28.44466604 2.3125 22.25 C1.64927734 20.68668945 1.64927734 20.68668945 0.97265625 19.09179688 C-1.50574217 13.12791668 -3.50003551 7.44384539 -4.5625 1.0625 C-3.5625 0.0625 -3.5625 0.0625 0 0 Z " fill="#1AC572" transform="translate(258.5625,79.9375)"/>
<path d="M0 0 C1.7315332 0.00290039 1.7315332 0.00290039 3.49804688 0.00585938 C4.70396484 0.01810547 5.90988281 0.03035156 7.15234375 0.04296875 C8.36212891 0.04361328 9.57191406 0.04425781 10.81835938 0.04492188 C19.80921134 0.09015254 19.80921134 0.09015254 22.08984375 1.23046875 C22.13238731 3.23001621 22.13065158 5.23088511 22.08984375 7.23046875 C20.47204218 8.84827032 18.63348857 8.45319022 16.3984375 8.546875 C15.45419922 8.58876953 14.50996094 8.63066406 13.53710938 8.67382812 C12.04727539 8.73280273 12.04727539 8.73280273 10.52734375 8.79296875 C9.53025391 8.83615234 8.53316406 8.87933594 7.50585938 8.92382812 C5.03400225 9.03027173 2.56204065 9.13228803 0.08984375 9.23046875 C0.08984375 10.88046875 0.08984375 12.53046875 0.08984375 14.23046875 C0.72075928 14.2555249 1.3516748 14.28058105 2.00170898 14.30639648 C4.843812 14.42201012 7.68555458 14.54489191 10.52734375 14.66796875 C12.01717773 14.72694336 12.01717773 14.72694336 13.53710938 14.78710938 C14.48134766 14.82900391 15.42558594 14.87089844 16.3984375 14.9140625 C17.27298584 14.95072021 18.14753418 14.98737793 19.04858398 15.02514648 C21.08984375 15.23046875 21.08984375 15.23046875 22.08984375 16.23046875 C22.21484375 19.73046875 22.21484375 19.73046875 22.08984375 23.23046875 C19.62407812 25.69623438 13.15028189 24.46445696 9.83984375 24.48046875 C8.78925781 24.50109375 7.73867188 24.52171875 6.65625 24.54296875 C5.13064453 24.55070312 5.13064453 24.55070312 3.57421875 24.55859375 C2.64319336 24.56793945 1.71216797 24.57728516 0.75292969 24.58691406 C-2.43392362 24.16036421 -4.30360868 23.07811205 -6.91015625 21.23046875 C-9.5314107 17.76186014 -9.24266805 13.78393233 -9.22265625 9.60546875 C-9.23876953 8.92484375 -9.25488281 8.24421875 -9.27148438 7.54296875 C-9.2734375 5.56640625 -9.2734375 5.56640625 -8.91015625 2.23046875 C-5.44019102 -0.0828414 -4.09010031 -0.01584227 0 0 Z " fill="#2ECA7E" transform="translate(310.91015625,95.76953125)"/>
<path d="M0 0 C3.95099928 -0.0246985 7.90196874 -0.04285923 11.85302734 -0.05493164 C13.85906551 -0.06244036 15.86508202 -0.0751447 17.87109375 -0.08789062 C19.75634766 -0.09272461 19.75634766 -0.09272461 21.6796875 -0.09765625 C23.42354736 -0.10551147 23.42354736 -0.10551147 25.20263672 -0.11352539 C28 0 28 0 30 1 C30 3.31 30 5.62 30 8 C26.16453959 8.92088257 22.75898739 9.05335412 18.82421875 8.87890625 C17.08881836 8.80639648 17.08881836 8.80639648 15.31835938 8.73242188 C14.12017578 8.67634766 12.92199219 8.62027344 11.6875 8.5625 C10.46998047 8.51029297 9.25246094 8.45808594 7.99804688 8.40429688 C4.99842021 8.27490121 1.99914994 8.13994552 -1 8 C-1.93065133 5.39417629 -2.14917407 4.35801776 -1.0625 1.75 C-0.711875 1.1725 -0.36125 0.595 0 0 Z " fill="#33CB80" transform="translate(303,80)"/>
<path d="M0 0 C2.74493569 2.74493569 2.29640828 4.35613943 2.37329102 8.20288086 C2.40153458 9.50861557 2.42977814 10.81435028 2.45887756 12.15965271 C2.53200372 18.16374681 2.55441193 24.16763051 2.54760742 30.17211914 C2.54825555 33.33483241 2.58993318 36.49282665 2.66870117 39.65454102 C3.33197929 67.30804293 3.33197929 67.30804293 -2.15356445 73.38037109 C-5.22359165 75.9401062 -8.51446348 77.68776159 -12.19308472 79.22000122 C-14.5800466 80.25039117 -16.54389552 81.67299911 -18.61328125 83.234375 C-19.84474169 84.07528291 -21.0777516 84.91392743 -22.3125 85.75 C-23.66035024 86.67028887 -25.00800715 87.59086095 -26.35546875 88.51171875 C-26.98372559 88.9401709 -27.61198242 89.36862305 -28.25927734 89.81005859 C-33.92746453 93.68477729 -39.52842408 97.65544789 -45.11889648 101.64111328 C-46.32433745 102.50040869 -47.53086964 103.35817551 -48.73852539 104.21435547 C-51.58992735 106.24321513 -54.40721837 108.29710918 -57.1640625 110.453125 C-58.12054688 111.19046875 -59.07703125 111.9278125 -60.0625 112.6875 C-60.89910156 113.35136719 -61.73570313 114.01523438 -62.59765625 114.69921875 C-65 116 -65 116 -67.68359375 115.89453125 C-70 115 -70 115 -72 112 C-70.89446777 112.57065186 -70.89446777 112.57065186 -69.76660156 113.15283203 C-67.07962818 114.29405581 -67.07962818 114.29405581 -64.86621094 113.13232422 C-64.16270508 112.6117041 -63.45919922 112.09108398 -62.734375 111.5546875 C-61.93555908 110.97831543 -61.13674316 110.40194336 -60.3137207 109.80810547 C-59.46769287 109.17018066 -58.62166504 108.53225586 -57.75 107.875 C-55.94663251 106.56247537 -54.1432468 105.24997577 -52.33984375 103.9375 C-51.43991699 103.27234375 -50.53999023 102.6071875 -49.61279297 101.921875 C-45.88663391 99.18104861 -42.10087652 96.52873679 -38.3125 93.875 C-36.9305111 92.89911474 -35.54900001 91.92255249 -34.16796875 90.9453125 C-31.29782633 88.91605598 -28.42520688 86.89037224 -25.55078125 84.8671875 C-24.07550108 83.82815305 -22.6002404 82.78909092 -21.125 81.75 C-20.41891602 81.25322754 -19.71283203 80.75645508 -18.98535156 80.24462891 C-13.93307043 76.68187913 -8.94712395 73.04119845 -4.00390625 69.328125 C-2 68 -2 68 0 68 C0 45.56 0 23.12 0 0 Z " fill="#EEFAF4" transform="translate(141,51)"/>
<path d="M0 0 C0.66 0.33 1.32 0.66 2 1 C-0.11164368 8.676471 -2.87045377 15.9707296 -5.9375 23.3125 C-6.36740234 24.37017578 -6.79730469 25.42785156 -7.24023438 26.51757812 C-11.45720503 36.66006446 -11.45720503 36.66006446 -15 40 C-18.625 40.5 -18.625 40.5 -22 40 C-22.66 39.01 -23.32 38.02 -24 37 C-22.906875 37.226875 -21.81375 37.45375 -20.6875 37.6875 C-17.19645342 38.37493898 -17.19645342 38.37493898 -15.44750977 36.93701172 C-13.436309 34.24568656 -12.37875169 31.44726736 -11.15234375 28.3203125 C-10.8949794 27.67053436 -10.63761505 27.02075623 -10.37245178 26.35128784 C-9.55344672 24.27866744 -8.74532869 22.2019986 -7.9375 20.125 C-7.39069279 18.73539401 -6.8431741 17.34606776 -6.29492188 15.95703125 C-5.28584562 13.39767291 -4.2818218 10.83654626 -3.28100586 8.27392578 C-2.19983432 5.51072579 -1.10652024 2.75312387 0 0 Z " fill="#E9F8F1" transform="translate(292,80)"/>
<path d="M0 0 C3.18447591 3.68725589 4.75082558 7.84213294 6.5390625 12.30859375 C6.86538666 13.11232925 7.19171082 13.91606476 7.52792358 14.74415588 C8.21483456 16.44001686 8.89882528 18.13706324 9.58007812 19.83520508 C10.62112944 22.42786069 11.67311328 25.01587647 12.7265625 27.60351562 C13.39388619 29.25494299 14.06057424 30.90662738 14.7265625 32.55859375 C15.04009674 33.32956894 15.35363098 34.10054413 15.67666626 34.8948822 C18.5533171 42.09737738 18.5533171 42.09737738 19 46 C18 47 18 47 15.27734375 47.09765625 C14.17519531 47.08605469 13.07304687 47.07445312 11.9375 47.0625 C10.28041016 47.04896484 10.28041016 47.04896484 8.58984375 47.03515625 C7.73519531 47.02355469 6.88054687 47.01195312 6 47 C6 46.67 6 46.34 6 46 C10.95 45.505 10.95 45.505 16 45 C15.2945789 40.18787129 13.47990428 35.97907604 11.62109375 31.5234375 C10.94074163 29.86719308 10.26040351 28.21094291 9.58007812 26.5546875 C8.5060718 23.95578437 7.43029817 21.35762086 6.35375977 18.75976562 C5.31355432 16.24524391 4.27960746 13.72821539 3.24609375 11.2109375 C2.7586393 10.04369644 2.7586393 10.04369644 2.26133728 8.85287476 C0 3.33887445 0 3.33887445 0 0 Z " fill="#ECF9F3" transform="translate(230,72)"/>
<path d="M0 0 C3.01574271 1.03991128 3.97991051 1.96914829 5.75 4.6875 C7.64128961 9.69941746 7.69812429 13.27131128 5.6875 18.25 C4.27078633 20.55871858 3.0410083 22.25056432 1 24 C1.515625 24.94875 2.03125 25.8975 2.5625 26.875 C3.036875 27.90625 3.51125 28.9375 4 30 C3.67 30.66 3.34 31.32 3 32 C2.13341385 30.73760288 1.28207941 29.46472499 0.4375 28.1875 C-0.27599609 27.12595703 -0.27599609 27.12595703 -1.00390625 26.04296875 C-2 24 -2 24 -1 21 C-0.32839844 20.4121875 0.34320313 19.824375 1.03515625 19.21875 C3.67104041 16.24224463 3.50497721 14.42267516 3.4375 10.5 C3.43621094 9.3759375 3.43492187 8.251875 3.43359375 7.09375 C2.97227402 3.80217137 2.22526734 2.40824689 0 0 Z " fill="#DCF6E9" transform="translate(368,81)"/>
<path d="M0 0 C0.66 0.33 1.32 0.66 2 1 C2.04254356 2.99954746 2.04080783 5.00041636 2 7 C1 8 1 8 -0.85766602 8.11352539 C-2.04380493 8.10567017 -2.04380493 8.10567017 -3.25390625 8.09765625 C-4.10791016 8.09443359 -4.96191406 8.09121094 -5.84179688 8.08789062 C-6.73962891 8.07951172 -7.63746094 8.07113281 -8.5625 8.0625 C-9.46419922 8.05798828 -10.36589844 8.05347656 -11.29492188 8.04882812 C-13.53001314 8.03700225 -15.76497437 8.0205222 -18 8 C-18.12246094 8.73605469 -18.24492187 9.47210938 -18.37109375 10.23046875 C-19.27766365 14.22275484 -21.09883188 17.38164777 -23 21 C-26.96 21 -30.92 21 -35 21 C-35 20.67 -35 20.34 -35 20 C-34.34773437 20.06703125 -33.69546875 20.1340625 -33.0234375 20.203125 C-29.96806395 20.25720241 -27.86407407 20.11238591 -25 19 C-22.19308799 15.15694273 -20.78940227 11.47350566 -19 7 C-12.73 6.67 -6.46 6.34 0 6 C0 4.02 0 2.04 0 0 Z " fill="#F8FCFA" transform="translate(218,98)"/>
<path d="M0 0 C1.41930893 4.2579268 -0.25632707 7.28026827 -1.75 11.3125 C-2.01554688 12.05951172 -2.28109375 12.80652344 -2.5546875 13.57617188 C-4.10965678 17.87498257 -5.86183657 21.94908194 -8 26 C-8.66 26 -9.32 26 -10 26 C-8.3422142 19.81965819 -6.2481251 13.87314971 -3.875 7.9375 C-3.60929199 7.27032959 -3.34358398 6.60315918 -3.06982422 5.91577148 C-1.13128939 1.13128939 -1.13128939 1.13128939 0 0 Z " fill="#E1F7EC" transform="translate(214,67)"/>
<path d="M0 0 C4.2404089 2.12020445 5.55574299 8.93331754 7.33276367 13.24584961 C8.18201454 15.2992368 9.05020348 17.34388482 9.91992188 19.38867188 C10.46211577 20.69221887 11.00316928 21.9962409 11.54296875 23.30078125 C12.03821045 24.48841064 12.53345215 25.67604004 13.04370117 26.8996582 C13.97399228 29.91568239 14.18266877 31.13853358 13 34 C12.67725098 33.18732666 12.35450195 32.37465332 12.02197266 31.53735352 C10.82350169 28.52910952 9.61893902 25.52340081 8.41015625 22.51928711 C7.88783312 21.21753964 7.36796394 19.91480478 6.85058594 18.61108398 C6.10734564 16.73945684 5.35459156 14.87161648 4.6015625 13.00390625 C4.15119629 11.87799072 3.70083008 10.7520752 3.23681641 9.59204102 C2.26764032 6.87771668 2.26764032 6.87771668 0 6 C0 4.02 0 2.04 0 0 Z " fill="#E9F9E6" transform="translate(408,83)"/>
<path d="M0 0 C0.66 0 1.32 0 2 0 C2.33 2.31 2.66 4.62 3 7 C-0.72430357 7.69289369 -4.21083746 8.11144596 -8 8 C-9.32 10.31 -10.64 12.62 -12 15 C-14.64 15 -17.28 15 -20 15 C-20 14.67 -20 14.34 -20 14 C-17.69 14 -15.38 14 -13 14 C-12.690625 12.865625 -12.38125 11.73125 -12.0625 10.5625 C-11 7 -11 7 -10 6 C-8.14712498 5.92773498 -6.29166122 5.9161878 -4.4375 5.9375 C-3.42558594 5.94652344 -2.41367187 5.95554687 -1.37109375 5.96484375 C-0.19740234 5.98224609 -0.19740234 5.98224609 1 6 C0.67 4.02 0.34 2.04 0 0 Z " fill="#E7F7E8" transform="translate(404,105)"/>
<path d="M0 0 C0.66 0.33 1.32 0.66 2 1 C1.52449439 2.48034764 1.04448784 3.95925021 0.5625 5.4375 C0.29566406 6.26121094 0.02882812 7.08492188 -0.24609375 7.93359375 C-1 10 -1 10 -2 11 C-4.01964199 11.07244053 -6.04167124 11.08377188 -8.0625 11.0625 C-9.16722656 11.05347656 -10.27195313 11.04445313 -11.41015625 11.03515625 C-12.69212891 11.01775391 -12.69212891 11.01775391 -14 11 C-14 10.67 -14 10.34 -14 10 C-10.7 9.67 -7.4 9.34 -4 9 C-2.68 6.03 -1.36 3.06 0 0 Z " fill="#E8F9F1" transform="translate(197,108)"/>
<path d="M0 0 C0.66 0.33 1.32 0.66 2 1 C0.84826645 3.46800047 -0.04783565 5.04783565 -2 7 C-1.484375 7.94875 -0.96875 8.8975 -0.4375 9.875 C0.036875 10.90625 0.51125 11.9375 1 13 C0.67 13.66 0.34 14.32 0 15 C-0.86658615 13.73760288 -1.71792059 12.46472499 -2.5625 11.1875 C-3.27599609 10.12595703 -3.27599609 10.12595703 -4.00390625 9.04296875 C-5 7 -5 7 -4 4 C-2.70644173 2.62804426 -1.37701298 1.28817344 0 0 Z " fill="#E6F8EF" transform="translate(371,98)"/>
<path d="M0 0 C0.66 0.66 1.32 1.32 2 2 C-0.475 7.94 -0.475 7.94 -3 14 C-3.66 14 -4.32 14 -5 14 C-4.34580901 8.93001981 -2.1453591 4.58009223 0 0 Z " fill="#EAF8EA" transform="translate(402,90)"/>
<path d="M0 0 C0.66 0 1.32 0 2 0 C1.67 1.32 1.34 2.64 1 4 C-2.63 4 -6.26 4 -10 4 C-10 3.34 -10 2.68 -10 2 C-6.7 2 -3.4 2 0 2 C0 1.34 0 0.68 0 0 Z " fill="#3BCB81" transform="translate(245,114)"/>
<path d="M0 0 C-0.625 1.9375 -0.625 1.9375 -2 4 C-5.125 4.75 -5.125 4.75 -8 5 C-8.99 3.68 -9.98 2.36 -11 1 C-10.2575 1.391875 -9.515 1.78375 -8.75 2.1875 C-7.8425 2.455625 -6.935 2.72375 -6 3 C-1.22727273 0 -1.22727273 0 0 0 Z " fill="#D5F4E5" transform="translate(80,162)"/>
<path d="M0 0 C0.66 0.99 1.32 1.98 2 3 C1.67 3.99 1.34 4.98 1 6 C-2.96 6 -6.92 6 -11 6 C-11 5.67 -11 5.34 -11 5 C-7.7 4.67 -4.4 4.34 -1 4 C-0.67 2.68 -0.34 1.36 0 0 Z " fill="#FDFEFD" transform="translate(247,113)"/>
</svg>
