<?xml version="1.0" encoding="UTF-8"?>
<svg version="1.1" xmlns="http://www.w3.org/2000/svg" width="149" height="170">
<path d="M0 0 C2.64046189 1.56676008 4.98603269 3.45267551 7.375 5.375 C8.80079631 6.48510425 10.22924374 7.59181081 11.66015625 8.6953125 C12.38219238 9.25250977 13.10422852 9.80970703 13.84814453 10.38378906 C17.08017775 12.81129756 20.4293817 15.04016198 23.8125 17.25 C29.13969002 20.7422306 34.3340081 24.36239551 39.46484375 28.140625 C41.91454897 29.93732714 44.38606365 31.69564406 46.875 33.4375 C47.67550781 34.00210938 48.47601563 34.56671875 49.30078125 35.1484375 C51.34215764 36.54874489 53.39363631 37.89739155 55.48046875 39.2265625 C56.07424316 39.61400635 56.66801758 40.0014502 57.27978516 40.40063477 C58.98188882 41.50996253 60.69576809 42.6011594 62.41015625 43.69140625 C66.14172291 47.0177349 65.89169781 50.20357074 66.18322754 55.03923035 C66.35218892 62.21500282 66.4572386 69.38775302 66.46816254 76.5653944 C66.47485461 80.24020559 66.51000815 83.90979247 66.61376953 87.58325195 C67.31234718 113.32537771 67.31234718 113.32537771 61.85083008 119.23779297 C58.76946876 121.7880803 55.46218354 123.58431745 51.80792236 125.18374634 C49.44188852 126.25198015 47.45821931 127.68013056 45.38671875 129.234375 C44.15525831 130.07528291 42.9222484 130.91392743 41.6875 131.75 C40.33964976 132.67028887 38.99199285 133.59086095 37.64453125 134.51171875 C37.01627441 134.9401709 36.38801758 135.36862305 35.74072266 135.81005859 C30.07253547 139.68477729 24.47157592 143.65544789 18.88110352 147.64111328 C17.67566255 148.50040869 16.46913036 149.35817551 15.26147461 150.21435547 C12.41007265 152.24321513 9.59278163 154.29710918 6.8359375 156.453125 C5.87945312 157.19046875 4.92296875 157.9278125 3.9375 158.6875 C3.10089844 159.35136719 2.26429687 160.01523438 1.40234375 160.69921875 C-1 162 -1 162 -3.3515625 162.03125 C-7.14497222 160.55417011 -10.0982344 158.27926198 -13.3125 155.8125 C-13.93833984 155.34263672 -14.56417969 154.87277344 -15.20898438 154.38867188 C-17.76680139 152.46571816 -20.31369591 150.52916775 -22.84790039 148.57519531 C-29.62696137 143.3993792 -36.77159998 138.78476806 -43.89257812 134.09765625 C-49.81189932 130.18162349 -55.62378515 126.16205126 -61.33862305 121.95263672 C-63.76823815 120.02342816 -63.76823815 120.02342816 -65.84686279 119.18315125 C-68.16077626 118.00850871 -69.43037053 117.08655716 -71 115 C-72.08492153 109.9692023 -71.98604888 104.96546077 -71.9296875 99.84765625 C-71.93440668 98.34459159 -71.94120349 96.84153215 -71.94998169 95.33848572 C-71.96028815 92.19169132 -71.94535372 89.04629021 -71.91259766 85.8996582 C-71.87274218 81.87598313 -71.8956578 77.85557919 -71.9376049 73.83202457 C-71.96296739 70.72875057 -71.95481935 67.62624517 -71.93671036 64.52294731 C-71.93205722 63.04025315 -71.93771379 61.55748806 -71.95406723 60.07487679 C-72.05348411 48.5270599 -72.05348411 48.5270599 -69.47599792 44.79090881 C-67.71551338 43.25545544 -66.04444766 42.11724646 -64 41 C-63.09378906 40.35675781 -62.18757813 39.71351562 -61.25390625 39.05078125 C-60.36574219 38.47714844 -59.47757813 37.90351562 -58.5625 37.3125 C-57.00595703 36.2915625 -57.00595703 36.2915625 -55.41796875 35.25 C-54.58918213 34.70666016 -54.58918213 34.70666016 -53.74365234 34.15234375 C-44.61133596 28.11698484 -35.67354668 21.79979784 -26.8125 15.375 C-25.30473055 14.2850967 -23.79691884 13.19525184 -22.2890625 12.10546875 C-20.19593016 10.59241172 -18.10495169 9.07699048 -16.02246094 7.54931641 C-14.25157604 6.25137497 -12.47104782 4.96795592 -10.6875 3.6875 C-9.70136719 2.96949219 -8.71523437 2.25148438 -7.69921875 1.51171875 C-4.61468491 -0.21579876 -3.45317182 -0.75068953 0 0 Z " fill="#05C065" transform="translate(77,5)"/>
<path d="M0 0 C5.11260331 1.80444823 7.43520551 4.39229791 10 9 C11.55023783 12.33813221 12.91122971 15.74252353 14.265625 19.1640625 C14.66271667 20.15135345 15.05980835 21.13864441 15.46893311 22.15585327 C16.73568988 25.30971337 17.99298747 28.46724535 19.25 31.625 C20.07880393 33.69295819 20.90822573 35.76066887 21.73828125 37.828125 C22.14581131 38.84501404 22.55334137 39.86190308 22.97322083 40.90960693 C23.79203841 42.95145475 24.61241832 44.99267675 25.43437195 47.03326416 C27.39870355 51.92526055 29.3189818 56.82512468 31.13989258 61.77246094 C31.65256683 63.13472305 31.65256683 63.13472305 32.17559814 64.52450562 C32.80816277 66.21034465 33.42441398 67.90244526 34.0199585 69.60171509 C37.2328354 78.06554833 43.43733803 81.66298955 51 86 C52.69192456 87.30113291 54.36866824 88.62365983 56 90 C52.94410713 92.27444833 49.86662807 94.51642549 46.76806641 96.73242188 C45.53779442 97.61443957 44.31116283 98.50154803 43.08740234 99.39257812 C41.11294451 100.82271018 39.12145234 102.22578541 37.125 103.625 C36.4952124 104.08696777 35.8654248 104.54893555 35.21655273 105.02490234 C30.73782433 108.11248797 30.73782433 108.11248797 27.6171875 107.63671875 C26.75351563 107.09660156 25.88984375 106.55648437 25 106 C24.34273926 105.59523438 23.68547852 105.19046875 23.00830078 104.7734375 C20.64160643 103.28740931 18.32022214 101.74498678 16 100.1875 C15.2059375 99.66607422 14.411875 99.14464844 13.59375 98.60742188 C9.27009556 95.72138254 5.51542387 92.83436354 2 89 C2.47945068 88.68772461 2.95890137 88.37544922 3.45288086 88.05371094 C5.62247767 86.63100724 7.77990857 85.19083846 9.9375 83.75 C11.06961914 83.01330078 11.06961914 83.01330078 12.22460938 82.26171875 C12.94326172 81.77832031 13.66191406 81.29492188 14.40234375 80.796875 C15.06741943 80.35698242 15.73249512 79.91708984 16.41772461 79.46386719 C18.40510241 77.62521307 18.6555356 76.67369114 19 74 C18.35150176 71.47009312 18.35150176 71.47009312 17.18579102 68.80419922 C16.76527969 67.76987762 16.34476837 66.73555603 15.91151428 65.66989136 C15.44700363 64.55937408 14.98249298 63.44885681 14.50390625 62.3046875 C13.80260841 60.5890007 13.80260841 60.5890007 13.08714294 58.83865356 C11.84392291 55.80134125 10.59146627 52.76807258 9.3338623 49.73669434 C7.56140352 45.45883884 5.80453754 41.17456966 4.04856873 36.8899231 C3.11268674 34.60883712 2.17240674 32.32954989 1.22743225 30.05221558 C0.80376877 29.0241983 0.38010529 27.99618103 -0.05639648 26.93701172 C-0.43247543 26.02974335 -0.80855438 25.12247498 -1.19602966 24.18771362 C-2 22 -2 22 -2 20 C-2.66 20 -3.32 20 -4 20 C-4.11335693 20.85609863 -4.22671387 21.71219727 -4.34350586 22.59423828 C-5.02910537 26.1509929 -6.11867777 29.14853255 -7.50390625 32.4921875 C-8.24350586 34.29042969 -8.24350586 34.29042969 -8.99804688 36.125 C-9.51939522 37.37505674 -10.04088131 38.62505604 -10.5625 39.875 C-11.08846464 41.14820052 -11.6138609 42.421636 -12.13867188 43.6953125 C-13.42021362 46.79923011 -14.70748804 49.90063822 -16 53 C-15.02417969 52.95359375 -14.04835937 52.9071875 -13.04296875 52.859375 C-11.77066406 52.82328125 -10.49835938 52.7871875 -9.1875 52.75 C-7.29064453 52.68039063 -7.29064453 52.68039063 -5.35546875 52.609375 C-2 53 -2 53 -0.125 54.86328125 C2.06309285 59.01913815 3.39750441 62.22994711 3 67 C1.28556781 68.71443219 -1.00445241 68.23052967 -3.34765625 68.31640625 C-4.42724609 68.35830078 -5.50683594 68.40019531 -6.61914062 68.44335938 C-7.75544922 68.48267578 -8.89175781 68.52199219 -10.0625 68.5625 C-11.77276367 68.62727539 -11.77276367 68.62727539 -13.51757812 68.69335938 C-16.34492195 68.79982839 -19.17235738 68.90184207 -22 69 C-24.31532862 73.63848465 -24.31532862 73.63848465 -25.06640625 78.66796875 C-23.48812325 82.11937884 -21.12561867 83.33251051 -17.9375 85.3125 C-16.83277344 86.00988281 -15.72804687 86.70726563 -14.58984375 87.42578125 C-13.73519531 87.94527344 -12.88054687 88.46476562 -12 89 C-16.54746695 94.01955568 -21.91244977 97.65226137 -27.5 101.4375 C-28.43714844 102.09943359 -29.37429687 102.76136719 -30.33984375 103.44335938 C-31.24863281 104.05888672 -32.15742187 104.67441406 -33.09375 105.30859375 C-33.91552734 105.87376709 -34.73730469 106.43894043 -35.58398438 107.02124023 C-38 108 -38 108 -40.63623047 107.2722168 C-49.61799195 102.43809584 -57.81758876 96.05627289 -66 90 C-63.51287002 86.99275781 -60.92664203 85.36723544 -57.49243164 83.65429688 C-39.59772768 74.2459505 -34.55206297 60.68434932 -28.20214844 42.64758301 C-26.66667844 38.33507923 -25.03449838 34.0583979 -23.41727543 29.77605438 C-22.1631679 26.44990782 -20.92304822 23.12078052 -19.72618103 19.77355957 C-19.29374588 18.57791382 -18.86131073 17.38226807 -18.41577148 16.15039062 C-18.04387192 15.10451782 -17.67197235 14.05864502 -17.2888031 12.9810791 C-13.76480858 4.82986779 -9.4675244 -1.16267844 0 0 Z " fill="#BEFD71" transform="translate(77,25)"/>
<path d="M0 0 C6.29444575 3.35070511 12.23004107 7.02541012 18.0625 11.125 C18.83271484 11.64964844 19.60292969 12.17429688 20.39648438 12.71484375 C21.12287109 13.22402344 21.84925781 13.73320312 22.59765625 14.2578125 C23.25258057 14.7130127 23.90750488 15.16821289 24.58227539 15.63720703 C25.28404907 16.31178955 25.28404907 16.31178955 26 17 C26 17.99 26 18.98 26 20 C23.9305416 21.72807329 21.90889597 23.24096494 19.6875 24.75 C19.05827637 25.18812012 18.42905273 25.62624023 17.78076172 26.07763672 C12.28739936 29.87539695 6.68524834 33.49603062 1 37 C-5.29444575 33.64929489 -11.23004107 29.97458988 -17.0625 25.875 C-17.83271484 25.35035156 -18.60292969 24.82570312 -19.39648438 24.28515625 C-20.12287109 23.77597656 -20.84925781 23.26679688 -21.59765625 22.7421875 C-22.25258057 22.2869873 -22.90750488 21.83178711 -23.58227539 21.36279297 C-24.05012451 20.91307129 -24.51797363 20.46334961 -25 20 C-25 19.01 -25 18.02 -25 17 C-23.56640625 15.63720703 -23.56640625 15.63720703 -21.5625 14.2578125 C-20.46615234 13.49404297 -20.46615234 13.49404297 -19.34765625 12.71484375 C-18.57292969 12.19019531 -17.79820313 11.66554687 -17 11.125 C-16.25621094 10.60808594 -15.51242188 10.09117187 -14.74609375 9.55859375 C-9.91954587 6.22617722 -5.00064747 3.06408883 0 0 Z " fill="#BEFD71" transform="translate(70,118)"/>
<path d="M0 0 C2.74493569 2.74493569 2.29640828 4.35613943 2.37329102 8.20288086 C2.40153458 9.50861557 2.42977814 10.81435028 2.45887756 12.15965271 C2.53200372 18.16374681 2.55441193 24.16763051 2.54760742 30.17211914 C2.54825555 33.33483241 2.58993318 36.49282665 2.66870117 39.65454102 C3.33197929 67.30804293 3.33197929 67.30804293 -2.15356445 73.38037109 C-5.22359165 75.9401062 -8.51446348 77.68776159 -12.19308472 79.22000122 C-14.5800466 80.25039117 -16.54389552 81.67299911 -18.61328125 83.234375 C-19.84474169 84.07528291 -21.0777516 84.91392743 -22.3125 85.75 C-23.66035024 86.67028887 -25.00800715 87.59086095 -26.35546875 88.51171875 C-26.98372559 88.9401709 -27.61198242 89.36862305 -28.25927734 89.81005859 C-33.92746453 93.68477729 -39.52842408 97.65544789 -45.11889648 101.64111328 C-46.32433745 102.50040869 -47.53086964 103.35817551 -48.73852539 104.21435547 C-51.58992735 106.24321513 -54.40721837 108.29710918 -57.1640625 110.453125 C-58.12054688 111.19046875 -59.07703125 111.9278125 -60.0625 112.6875 C-60.89910156 113.35136719 -61.73570313 114.01523438 -62.59765625 114.69921875 C-65 116 -65 116 -67.68359375 115.89453125 C-70 115 -70 115 -72 112 C-70.89446777 112.57065186 -70.89446777 112.57065186 -69.76660156 113.15283203 C-67.07962818 114.29405581 -67.07962818 114.29405581 -64.86621094 113.13232422 C-64.16270508 112.6117041 -63.45919922 112.09108398 -62.734375 111.5546875 C-61.93555908 110.97831543 -61.13674316 110.40194336 -60.3137207 109.80810547 C-59.46769287 109.17018066 -58.62166504 108.53225586 -57.75 107.875 C-55.94663251 106.56247537 -54.1432468 105.24997577 -52.33984375 103.9375 C-51.43991699 103.27234375 -50.53999023 102.6071875 -49.61279297 101.921875 C-45.88663391 99.18104861 -42.10087652 96.52873679 -38.3125 93.875 C-36.9305111 92.89911474 -35.54900001 91.92255249 -34.16796875 90.9453125 C-31.29782633 88.91605598 -28.42520688 86.89037224 -25.55078125 84.8671875 C-24.07550108 83.82815305 -22.6002404 82.78909092 -21.125 81.75 C-20.41891602 81.25322754 -19.71283203 80.75645508 -18.98535156 80.24462891 C-13.93307043 76.68187913 -8.94712395 73.04119845 -4.00390625 69.328125 C-2 68 -2 68 0 68 C0 45.56 0 23.12 0 0 Z " fill="#EEFAF4" transform="translate(141,51)"/>
<path d="M0 0 C-0.625 1.9375 -0.625 1.9375 -2 4 C-5.125 4.75 -5.125 4.75 -8 5 C-8.99 3.68 -9.98 2.36 -11 1 C-10.2575 1.391875 -9.515 1.78375 -8.75 2.1875 C-7.8425 2.455625 -6.935 2.72375 -6 3 C-1.22727273 0 -1.22727273 0 0 0 Z " fill="#D5F4E5" transform="translate(80,162)"/>
</svg>
